# Rhino

v 20266.510252244421 -472.32241361522756 -7770.5257128954108
v 20266.510252244479 -472.32241361522756 5881.6164481239102
v 19177.697303893954 9969.8016044479155 5350.0220883415459
v 18076.955900041914 20526.323978884058 4812.6038635188179
v 16976.21449618987 31082.846353320183 4275.1856386961426
v 15875.473092338128 41639.368727756286 3737.7674138734292
v 15875.473092338012 41639.368727756228 -5626.6766786447552
v 16976.214496190049 31082.846353320136 -6164.0949034675004
v 18076.955900041823 20526.323978884058 -6701.5131282902585
v 19177.697303893805 9969.8016044478809 -7238.9313531130447
vt 0 0
vt 1 0
vt 0.99141579866409302 0.2479625940322876
vt 0.98150670528411865 0.4986417293548584
vt 0.97007602453231812 0.7493208646774292
vt 0.95674413442611694 1
vt 0.04325588047504425 1
vt 0.029923992231488228 0.7493208646774292
vt 0.018493304029107094 0.4986417293548584
vt 0.0085842004045844078 0.2479625940322876
vn 0.99460768699645996 0.10370895266532898 0
vn 0.99460768699645996 0.10370895266532898 0
vn 0.99460768699645996 0.10370895266532898 0
vn 0.99460768699645996 0.10370895266532898 0
vn 0.99460768699645996 0.10370895266532898 0
vn 0.99460768699645996 0.10370895266532898 0
vn 0.99460768699645996 0.10370895266532898 0
vn 0.99460768699645996 0.10370895266532898 0
vn 0.99460768699645996 0.10370895266532898 0
vn 0.99460768699645996 0.10370895266532898 0
f 10/10/10 9/9/9 3/3/3
f 7/7/7 5/5/5 8/8/8
f 8/8/8 4/4/4 9/9/9
f 3/3/3 1/1/1 10/10/10
f 3/3/3 9/9/9 4/4/4
f 6/6/6 5/5/5 7/7/7
f 5/5/5 4/4/4 8/8/8
f 2/2/2 1/1/1 3/3/3
v 19358.735713463335 -473.28980943498027 9455.1087353953917
v 15003.13927288223 10064.790632015283 9945.9182351694762
v 14213.595614048407 20602.871073465525 9276.1265381987359
v 13424.051955214587 31140.951514915781 8606.334841227992
v 11659.382656458893 10064.790632015282 11106.519431914268
v 11092.135162949042 20602.871073465521 10436.72773494353
v 10524.887669439197 31140.951514915781 9766.9360379727859
v 8315.6260400355586 10064.79063201528 12267.12062865906
v 7970.6747118496805 20602.871073465521 11597.328931688322
v 5094.5245864741737 -473.28980943498027 14097.513522374618
v 5086.2820189755894 6916.7958889256988 13601.337036117377
v 5077.1842258010875 14421.121416789145 13095.153238634492
v 5073.957598726498 16933.502229988531 12925.106962329708
v 5062.6967908343067 25152.301249337979 12366.565892718179
v 6409.944486299999 20602.871073465525 12177.62953006072
v 8143.1503759426187 15333.830852740401 11932.224780173696
v 6643.7477318238907 10064.790632015282 12847.42122703146
v 6526.8461090619439 15333.830852740402 12512.52537854609
v 8972.1439206974264 33442.358402776925 10202.408192274523
v 10924.396313626985 37568.354834156373 9045.3395587674204
v 12874.978678844811 41679.031956366016 7832.2831653897301
v 15004.84817447036 41679.031956366016 6908.8424225874769
v 13029.280125797681 36409.991735640899 8271.4389927426182
v 14873.634098102284 31140.951514915778 8026.0342428555941
v 14423.288227354384 36409.991735640899 7691.1383943702203
v 15707.17368214126 34864.266753292883 7315.4639103020445
v 16410.191656707513 28049.709380399749 7724.3654449018732
v 17817.973965504731 14421.121416789116 8547.9193726453814
v 18594.023693501786 6916.6400146729011 9004.180292201916
vt 0 0
vt 0.25 0.25
vt 0.25 0.5
vt 0.25 0.75
vt 0.5 0.25
vt 0.5 0.5
vt 0.5 0.75
vt 0.75 0.25
vt 0.75 0.5
vt 1 0
vt 0.99429845809936523 0.17531859874725342
vt 0.98800539970397949 0.35334736108779907
vt 0.98577350378036499 0.41294977068901062
vt 0.97798418998718262 0.60792833566665649
vt 0.875 0.5
vt 0.75 0.375
vt 0.875 0.25
vt 0.875 0.375
vt 0.62531173229217529 0.80459737777709961
vt 0.43256166577339172 0.90248042345046997
vt 0.22754181921482086 1
vt 0.028627507388591766 1
vt 0.25 0.875
vt 0.125 0.75
vt 0.125 0.875
vt 0.022915087640285492 0.83833003044128418
vt 0.017696646973490715 0.67666494846343994
vt 0.0085057476535439491 0.35334736108779907
vt 0.0040430333465337753 0.17531488835811615
vn 0.30823007225990295 0.089790135622024536 0.94706493616104126
vn 0.32673689723014832 0.084311336278915405 0.94134724140167236
vn 0.34723123908042908 0.085372559726238251 0.93388545513153076
vn 0.37025508284568787 0.08652593195438385 0.92489159107208252
vn 0.32691916823387146 0.077462144196033478 0.94187229871749878
vn 0.3474392294883728 0.078094623982906342 0.9344448447227478
vn 0.37049421668052673 0.078766413033008575 0.92548900842666626
vn 0.32708615064620972 0.070601977407932281 0.94235342741012573
vn 0.34762892127037048 0.070804186165332794 0.93495500087738037
vn 0.30884745717048645 0.06390998512506485 0.94896191358566284
vn 0.32152855396270752 0.063943818211555481 0.94473838806152344
vn 0.33544781804084778 0.063982076942920685 0.9398835301399231
vn 0.34036329388618469 0.063995875418186188 0.9381137490272522
vn 0.3574238121509552 0.064044974744319916 0.9317438006401062
vn 0.34771686792373657 0.067154631018638611 0.9351915717124939
vn 0.33706489205360413 0.07070421427488327 0.93882274627685547
vn 0.32716390490531921 0.067168071866035461 0.94257742166519165
vn 0.33714750409126282 0.067165553569793701 0.93905287981033325
vn 0.37602365016937256 0.074966326355934143 0.92357254028320313
vn 0.38591915369033813 0.081376247107982635 0.91893649101257324
vn 0.39622613787651062 0.088522434234619141 0.91387557983398438
vn 0.39598435163497925 0.095114633440971375 0.91331791877746582
vn 0.38285097479820251 0.087139122188091278 0.91969120502471924
vn 0.37012720108032227 0.090399883687496185 0.9245721697807312
vn 0.3827131986618042 0.091144353151321411 0.91936028003692627
vn 0.37882611155509949 0.094158194959163666 0.92066550254821777
vn 0.36298266053199768 0.093237608671188354 0.92711937427520752
vn 0.33472621440887451 0.091509044170379639 0.93786162137985229
vn 0.32086196541786194 0.090621255338191986 0.94278067350387573
f 33/33/33 14/14/14 34/34/34 35/35/35
f 16/16/16 15/15/15 12/12/12 13/13/13
f 17/17/17 16/16/16 13/13/13 14/14/14
f 26/26/26 16/16/16 19/19/19
f 15/15/15 26/26/26 18/18/18
f 16/16/16 26/26/26 15/15/15
f 25/25/25 28/28/28 26/26/26 19/19/19
f 28/28/28 27/27/27 18/18/18 26/26/26
f 38/38/38 12/12/12 39/39/39
f 11/11/11 39/39/39 12/12/12
f 38/38/38 37/37/37 13/13/13
f 36/36/36 34/34/34 37/37/37
f 13/13/13 37/37/37 34/34/34
f 34/34/34 14/14/14 13/13/13
f 12/12/12 38/38/38 13/13/13
f 12/12/12 15/15/15 11/11/11
f 32/32/32 35/35/35 36/36/36
f 35/35/35 34/34/34 36/36/36
f 31/31/31 33/33/33 35/35/35 32/32/32
f 30/30/30 14/14/14 33/33/33
f 33/33/33 31/31/31 30/30/30
f 17/17/17 14/14/14 30/30/30
f 20/20/20 15/15/15 18/18/18
f 20/20/20 18/18/18 27/27/27
f 21/21/21 27/27/27 22/22/22
f 23/23/23 22/22/22 28/28/28
f 22/22/22 27/27/27 28/28/28
f 20/20/20 27/27/27 21/21/21
f 20/20/20 11/11/11 15/15/15
f 29/29/29 19/19/19 17/17/17
f 16/16/16 17/17/17 19/19/19
f 30/30/30 29/29/29 17/17/17
f 19/19/19 24/24/24 25/25/25
f 23/23/23 25/25/25 24/24/24
f 29/29/29 24/24/24 19/19/19
f 28/28/28 25/25/25 23/23/23
v -13147.579619643628 -472.32241361522756 -7770.5257128954108
v -13147.579619643686 -472.32241361522756 5881.6164481239102
v -12058.76667129316 9969.8016044479155 5350.0220883415459
v -10958.02526744112 20526.323978884058 4812.6038635188179
v -9857.2838635890766 31082.846353320183 4275.1856386961426
v -8756.5424597373349 41639.368727756286 3737.7674138734292
v -8756.5424597372185 41639.368727756228 -5626.6766786447552
v -9857.2838635892567 31082.846353320136 -6164.0949034675004
v -10958.025267441029 20526.323978884058 -6701.5131282902585
v -12058.766671293011 9969.8016044478809 -7238.9313531130447
vt 0 0
vt 1 0
vt 0.99141579866409302 0.2479625940322876
vt 0.98150670528411865 0.4986417293548584
vt 0.97007602453231812 0.7493208646774292
vt 0.95674413442611694 1
vt 0.04325588047504425 1
vt 0.029923992231488228 0.7493208646774292
vt 0.018493304029107094 0.4986417293548584
vt 0.0085842004045844078 0.2479625940322876
vn -0.99460768699645996 0.10370895266532898 0
vn -0.99460768699645996 0.10370895266532898 0
vn -0.99460768699645996 0.10370895266532898 0
vn -0.99460768699645996 0.10370895266532898 0
vn -0.99460768699645996 0.10370895266532898 0
vn -0.99460768699645996 0.10370895266532898 0
vn -0.99460768699645996 0.10370895266532898 0
vn -0.99460768699645996 0.10370895266532898 0
vn -0.99460768699645996 0.10370895266532898 0
vn -0.99460768699645996 0.10370895266532898 0
f 49/49/49 42/42/42 48/48/48
f 46/46/46 47/47/47 44/44/44
f 47/47/47 48/48/48 43/43/43
f 42/42/42 49/49/49 40/40/40
f 42/42/42 43/43/43 48/48/48
f 45/45/45 46/46/46 44/44/44
f 44/44/44 47/47/47 43/43/43
f 41/41/41 42/42/42 40/40/40
v -5469.7847022844362 43351.41214178018 7922.082432309835
v 3559.4653163293842 23428.88734698559 13175.764836441958
v -3438.4760465319268 38865.183347694649 9211.6862978753925
v -1116.4268837062991 33739.148521551033 10603.428588763782
v 1216.4300402594963 28592.949487486054 11922.418718821718
v 3559.4653163293842 43351.409606304747 11909.505761447595
v 3559.4653163293842 23428.88734698559 13175.764836441958
v 12588.715333725791 43351.41214176004 7922.0824328493909
v 5902.5005923991557 28592.949487485996 11922.418718821777
v 8235.3575163649512 33739.148521551033 10603.42858876384
v 10557.406679190521 38865.183347694692 9211.686297875538
v 3559.4653163293842 43351.409606304747 11909.505761447595
vt 0.5 0.89153844118118286
vt 0.99853515625 0
vt 0.62558490037918091 0.69077849388122559
vt 0.75885552167892456 0.461387038230896
vt 0.88286995887756348 0.23109319806098938
vt 0.99853515625 0.89153838157653809
vt 0 0
vt 0.49853515625 0.89153844118118286
vt 0.11566521227359772 0.23109319806098938
vt 0.23967964947223663 0.461387038230896
vt 0.37295028567314148 0.69077849388122559
vt 0 0.89153838157653809
vn -0.40243867039680481 0.087087348103523254 0.91129517555236816
vn -0.35518756508827209 0.059295155107975006 0.93291258811950684
vn -0.39088377356529236 0.079476431012153625 0.91700237989425659
vn -0.37835767865180969 0.071839801967144012 0.9228675365447998
vn -0.36646872758865356 0.065154239535331726 0.92814630270004272
vn -0.40329241752624512 0.058044042438268661 0.91322839260101318
vn 0.35518756508827209 0.059295155107975006 0.93291258811950684
vn 0.40243867039680481 0.087087348103523254 0.91129517555236816
vn 0.36646872758865356 0.065154239535331726 0.92814630270004272
vn 0.37835767865180969 0.071839801967144012 0.9228675365447998
vn 0.39088377356529236 0.079476431012153625 0.91700237989425659
vn 0.40329241752624512 0.058044042438268661 0.91322839260101318
f 55/55/55 52/52/52 53/53/53
f 55/55/55 50/50/50 52/52/52
f 55/55/55 54/54/54 51/51/51
f 53/53/53 54/54/54 55/55/55
f 61/61/61 56/56/56 58/58/58
f 59/59/59 61/61/61 58/58/58
f 61/61/61 60/60/60 57/57/57
f 61/61/61 59/59/59 60/60/60
v -12239.805080862541 -473.28980943498027 9455.1087353953917
v -7884.2086402814348 10064.790632015283 9945.9182351694762
v -7094.6649814476123 20602.871073465525 9276.1265381987359
v -6305.1213226137943 31140.951514915781 8606.334841227992
v -4540.452023858099 10064.790632015282 11106.519431914268
v -3973.2045303482487 20602.871073465521 10436.72773494353
v -3405.957036838402 31140.951514915781 9766.9360379727859
v -1196.695407434765 10064.79063201528 12267.12062865906
v -851.74407924888726 20602.871073465521 11597.328931688322
v 2024.4060461266199 -473.28980943498027 14097.513522374618
v 2032.6486136252051 6916.7958889256988 13601.337036117377
v 2041.7464067997062 14421.121416789145 13095.153238634492
v 2044.9730338742957 16933.502229988531 12925.106962329708
v 2056.2338417664869 25152.301249337979 12366.565892718179
v 708.98614630079544 20602.871073465525 12177.62953006072
v -1024.2197433418246 15333.830852740401 11932.224780173696
v 475.18290077690381 10064.790632015282 12847.42122703146
v 592.08452353885014 15333.830852740402 12512.52537854609
v -1853.2132880966317 33442.358402776925 10202.408192274523
v -3805.4656810261918 37568.354834156373 9045.3395587674204
v -5756.0480462440173 41679.031956366016 7832.2831653897301
v -7885.9175418695668 41679.031956366016 6908.8424225874769
v -5910.3494931968853 36409.991735640899 8271.4389927426182
v -7754.7034655014904 31140.951514915778 8026.0342428555941
v -7304.3575947535901 36409.991735640899 7691.1383943702203
v -8588.243049540466 34864.266753292883 7315.4639103020445
v -9291.2610241067214 28049.709380399749 7724.3654449018732
v -10699.043332903937 14421.121416789116 8547.9193726453814
v -11475.093060900992 6916.6400146729011 9004.180292201916
vt 0 0
vt 0.25 0.25
vt 0.25 0.5
vt 0.25 0.75
vt 0.5 0.25
vt 0.5 0.5
vt 0.5 0.75
vt 0.75 0.25
vt 0.75 0.5
vt 1 0
vt 0.99429845809936523 0.17531859874725342
vt 0.98800539970397949 0.35334736108779907
vt 0.98577350378036499 0.41294977068901062
vt 0.97798418998718262 0.60792833566665649
vt 0.875 0.5
vt 0.75 0.375
vt 0.875 0.25
vt 0.875 0.375
vt 0.62531173229217529 0.80459737777709961
vt 0.43256166577339172 0.90248042345046997
vt 0.22754181921482086 1
vt 0.028627507388591766 1
vt 0.25 0.875
vt 0.125 0.75
vt 0.125 0.875
vt 0.022915087640285492 0.83833003044128418
vt 0.017696646973490715 0.67666494846343994
vt 0.0085057476535439491 0.35334736108779907
vt 0.0040430333465337753 0.17531488835811615
vn -0.30823007225990295 0.089790135622024536 0.94706493616104126
vn -0.32673689723014832 0.084311336278915405 0.94134724140167236
vn -0.34723123908042908 0.085372559726238251 0.93388545513153076
vn -0.37025508284568787 0.08652593195438385 0.92489159107208252
vn -0.32691916823387146 0.077462144196033478 0.94187229871749878
vn -0.3474392294883728 0.078094623982906342 0.9344448447227478
vn -0.37049421668052673 0.078766413033008575 0.92548900842666626
vn -0.32708615064620972 0.070601977407932281 0.94235342741012573
vn -0.34762892127037048 0.070804186165332794 0.93495500087738037
vn -0.30884745717048645 0.06390998512506485 0.94896191358566284
vn -0.32152855396270752 0.063943818211555481 0.94473838806152344
vn -0.33544781804084778 0.063982076942920685 0.9398835301399231
vn -0.34036329388618469 0.063995875418186188 0.9381137490272522
vn -0.3574238121509552 0.064044974744319916 0.9317438006401062
vn -0.34771686792373657 0.067154631018638611 0.9351915717124939
vn -0.33706489205360413 0.07070421427488327 0.93882274627685547
vn -0.32716390490531921 0.067168071866035461 0.94257742166519165
vn -0.33714750409126282 0.067165553569793701 0.93905287981033325
vn -0.37602365016937256 0.074966326355934143 0.92357254028320313
vn -0.38591915369033813 0.081376247107982635 0.91893649101257324
vn -0.39622613787651062 0.088522434234619141 0.91387557983398438
vn -0.39598435163497925 0.095114633440971375 0.91331791877746582
vn -0.38285097479820251 0.087139122188091278 0.91969120502471924
vn -0.37012720108032227 0.090399883687496185 0.9245721697807312
vn -0.3827131986618042 0.091144353151321411 0.91936028003692627
vn -0.37882611155509949 0.094158194959163666 0.92066550254821777
vn -0.36298266053199768 0.093237608671188354 0.92711937427520752
vn -0.33472621440887451 0.091509044170379639 0.93786162137985229
vn -0.32086196541786194 0.090621255338191986 0.94278067350387573
f 84/84/84 86/86/86 85/85/85 65/65/65
f 67/67/67 64/64/64 63/63/63 66/66/66
f 68/68/68 65/65/65 64/64/64 67/67/67
f 77/77/77 70/70/70 67/67/67
f 66/66/66 69/69/69 77/77/77
f 67/67/67 66/66/66 77/77/77
f 76/76/76 70/70/70 77/77/77 79/79/79
f 79/79/79 77/77/77 69/69/69 78/78/78
f 89/89/89 90/90/90 63/63/63
f 62/62/62 63/63/63 90/90/90
f 89/89/89 64/64/64 88/88/88
f 87/87/87 88/88/88 85/85/85
f 64/64/64 85/85/85 88/88/88
f 85/85/85 64/64/64 65/65/65
f 63/63/63 64/64/64 89/89/89
f 63/63/63 62/62/62 66/66/66
f 83/83/83 87/87/87 86/86/86
f 86/86/86 87/87/87 85/85/85
f 82/82/82 83/83/83 86/86/86 84/84/84
f 81/81/81 84/84/84 65/65/65
f 84/84/84 81/81/81 82/82/82
f 68/68/68 81/81/81 65/65/65
f 71/71/71 69/69/69 66/66/66
f 71/71/71 78/78/78 69/69/69
f 72/72/72 73/73/73 78/78/78
f 74/74/74 79/79/79 73/73/73
f 73/73/73 79/79/79 78/78/78
f 71/71/71 72/72/72 78/78/78
f 71/71/71 66/66/66 62/62/62
f 80/80/80 68/68/68 70/70/70
f 67/67/67 70/70/70 68/68/68
f 81/81/81 68/68/68 80/80/80
f 70/70/70 76/76/76 75/75/75
f 74/74/74 75/75/75 76/76/76
f 80/80/80 70/70/70 75/75/75
f 79/79/79 74/74/74 76/76/76
