# Blender 3.3.0
# www.blender.org
o glass_hall
v 12614.702148 29008.613281 -35382.148438
v 11495.730469 -21578.654297 -41415.406250
v 11495.730469 -21578.652344 -46678.773438
v 11775.473633 -8931.834961 -45063.582031
v 12055.215820 3714.980957 -43448.390625
v 12334.958984 16361.797852 -41833.195312
v 12614.702148 29008.613281 -40218.003906
v 12334.958984 16361.796875 -36890.460938
v 12055.215820 3714.980225 -38398.777344
v 11775.473633 -8931.835938 -39907.089844
v 11531.848633 -19945.798828 -39864.125000
v 11667.992188 -13790.899414 -32997.992188
v 11802.341797 -7717.152344 -38477.265625
v 12072.834961 4511.494141 -37090.410156
v 12343.328125 16740.140625 -35703.550781
v 12613.821289 28968.787109 -34316.695312
v 12613.821289 28968.785156 -28406.839844
v 12377.364258 18278.863281 -29554.625000
v 12140.907227 7588.942871 -30702.414062
v 11904.449219 -3100.978516 -31850.201172
v 11698.474609 -12412.861328 -31636.003906
v 12609.756836 28785.056641 -21424.722656
v 12224.983398 11389.943359 -22956.292969
v 11840.209961 -6005.169434 -24487.867188
v 11926.294922 -2113.381836 -30561.986328
v 12154.116211 8186.097656 -29487.966797
v 12381.936523 18485.576172 -28413.949219
v 12609.756836 28785.056641 -27339.933594
v 12605.586914 28596.535156 -15305.614258
v 11869.443359 -4683.590332 -23167.945312
v 12605.586914 28596.537109 -20351.248047
v 12295.919922 14596.898438 -16291.239258
v 11986.253906 597.259827 -17276.863281
v 12237.514648 11956.473633 -21759.597656
v 12602.036133 28435.980469 -11304.048828
v 12015.050781 1899.142212 -15912.547852
v 12015.050781 1899.141724 -12871.391602
v 12308.542969 15167.562500 -15027.681641
v 12602.036133 28435.980469 -14142.816406
v 12308.542969 15167.561523 -12087.719727
v -5495.771484 29008.613281 -35382.148438
v -4376.799316 -21578.654297 -41415.406250
v -4376.799316 -21578.652344 -46678.773438
v -4656.542480 -8931.834961 -45063.582031
v -4936.285645 3714.980957 -43448.390625
v -5216.028809 16361.797852 -41833.195312
v -5495.771484 29008.613281 -40218.003906
v -5216.028809 16361.796875 -36890.460938
v -4936.285645 3714.980225 -38398.777344
v -4656.542480 -8931.835938 -39907.089844
v -4412.917480 -19945.798828 -39864.125000
v -4549.062012 -13790.899414 -32997.992188
v -4683.411133 -7717.152344 -38477.265625
v -4953.904297 4511.494141 -37090.410156
v -5224.397461 16740.140625 -35703.550781
v -5494.890625 28968.787109 -34316.695312
v -5494.890625 28968.785156 -28406.839844
v -5258.433594 18278.863281 -29554.625000
v -5021.976074 7588.942871 -30702.414062
v -4785.519043 -3100.978516 -31850.201172
v -4579.543457 -12412.861328 -31636.003906
v -5490.826660 28785.056641 -21424.722656
v -5106.053223 11389.943359 -22956.292969
v -4721.279297 -6005.169434 -24487.867188
v -4807.364258 -2113.381836 -30561.986328
v -5035.185059 8186.097656 -29487.966797
v -5263.005859 18485.576172 -28413.949219
v -5490.826660 28785.056641 -27339.933594
v -5486.656738 28596.535156 -15305.614258
v -4750.512207 -4683.590332 -23167.945312
v -5486.656738 28596.537109 -20351.248047
v -5176.989746 14596.898438 -16291.239258
v -4867.322754 597.259827 -17276.863281
v -5118.584473 11956.473633 -21759.597656
v -5483.105469 28435.980469 -11304.048828
v -4896.120117 1899.142212 -15912.547852
v -4896.120117 1899.141724 -12871.391602
v -5189.612793 15167.562500 -15027.681641
v -5483.105469 28435.980469 -14142.816406
v -5189.612793 15167.561523 -12087.719727
vn 0.9998 -0.0221 -0.0000
vn -0.9998 -0.0221 -0.0000
vt 0.770328 1.000000
vt 0.806345 0.000000
vt 0.997126 0.000000
vt 0.991667 0.250000
vt 0.985816 0.500000
vt 0.979528 0.750000
vt 0.972753 1.000000
vt 0.780339 0.750000
vt 0.789630 0.500000
vt 0.798277 0.250000
vt 0.794290 0.000000
vt 0.603922 0.125830
vt 0.788341 0.250000
vt 0.781978 0.500000
vt 0.775155 0.750000
vt 0.767822 1.000000
vt 0.564744 1.000000
vt 0.575469 0.781457
vt 0.585536 0.562915
vt 0.595003 0.344372
vt 0.599521 0.000000
vt 0.349698 1.000000
vt 0.369176 0.577767
vt 0.386779 0.155534
vt 0.590219 0.250000
vt 0.580366 0.500000
vt 0.569911 0.750000
vt 0.558796 1.000000
vt 0.160554 1.000000
vt 0.380966 0.000000
vt 0.343370 1.000000
vt 0.177853 0.579339
vt 0.193786 0.158679
vt 0.363079 0.500000
vt 0.003012 1.000000
vt 0.195168 0.000000
vt 0.050228 0.000000
vt 0.173126 0.500000
vt 0.149295 1.000000
vt 0.027542 0.500000
vt 0.770328 1.000000
vt 0.806345 0.000000
vt 0.997126 0.000000
vt 0.991667 0.250000
vt 0.985816 0.500000
vt 0.979528 0.750000
vt 0.972753 1.000000
vt 0.780339 0.750000
vt 0.789630 0.500000
vt 0.798277 0.250000
vt 0.794290 0.000000
vt 0.603922 0.125830
vt 0.788341 0.250000
vt 0.781978 0.500000
vt 0.775155 0.750000
vt 0.767822 1.000000
vt 0.564744 1.000000
vt 0.575469 0.781457
vt 0.585536 0.562915
vt 0.595003 0.344372
vt 0.599521 0.000000
vt 0.349698 1.000000
vt 0.369176 0.577767
vt 0.386779 0.155534
vt 0.590219 0.250000
vt 0.580366 0.500000
vt 0.569911 0.750000
vt 0.558796 1.000000
vt 0.160554 1.000000
vt 0.380966 0.000000
vt 0.343370 1.000000
vt 0.177853 0.579339
vt 0.193786 0.158679
vt 0.363079 0.500000
vt 0.003012 1.000000
vt 0.195168 0.000000
vt 0.050228 0.000000
vt 0.173126 0.500000
vt 0.149295 1.000000
vt 0.027542 0.500000
s 0
f 4/4/1 10/10/1 2/2/1
f 6/6/1 8/8/1 9/9/1
f 7/7/1 1/1/1 8/8/1
f 9/9/1 10/10/1 5/5/1
f 4/4/1 5/5/1 10/10/1
f 7/7/1 8/8/1 6/6/1
f 6/6/1 9/9/1 5/5/1
f 3/3/1 4/4/1 2/2/1
f 13/13/1 20/20/1 12/12/1
f 15/15/1 18/18/1 19/19/1
f 16/16/1 17/17/1 18/18/1
f 19/19/1 20/20/1 14/14/1
f 13/13/1 14/14/1 20/20/1
f 16/16/1 18/18/1 15/15/1
f 15/15/1 19/19/1 14/14/1
f 11/11/1 13/13/1 12/12/1
f 27/27/1 28/28/1 23/23/1
f 23/23/1 28/28/1 22/22/1
f 26/26/1 23/23/1 24/24/1
f 25/25/1 26/26/1 24/24/1
f 26/26/1 27/27/1 23/23/1
f 21/21/1 25/25/1 24/24/1
f 34/34/1 32/32/1 33/33/1
f 31/31/1 29/29/1 32/32/1
f 31/31/1 32/32/1 34/34/1
f 30/30/1 34/34/1 33/33/1
f 38/38/1 40/40/1 37/37/1
f 39/39/1 35/35/1 40/40/1
f 39/39/1 40/40/1 38/38/1
f 36/36/1 38/38/1 37/37/1
f 44/44/2 42/42/2 50/50/2
f 46/46/2 49/49/2 48/48/2
f 47/47/2 48/48/2 41/41/2
f 49/49/2 45/45/2 50/50/2
f 44/44/2 50/50/2 45/45/2
f 47/47/2 46/46/2 48/48/2
f 46/46/2 45/45/2 49/49/2
f 43/43/2 42/42/2 44/44/2
f 53/53/2 52/52/2 60/60/2
f 55/55/2 59/59/2 58/58/2
f 56/56/2 58/58/2 57/57/2
f 59/59/2 54/54/2 60/60/2
f 53/53/2 60/60/2 54/54/2
f 56/56/2 55/55/2 58/58/2
f 55/55/2 54/54/2 59/59/2
f 51/51/2 52/52/2 53/53/2
f 67/67/2 63/63/2 68/68/2
f 63/63/2 62/62/2 68/68/2
f 66/66/2 64/64/2 63/63/2
f 65/65/2 64/64/2 66/66/2
f 66/66/2 63/63/2 67/67/2
f 61/61/2 64/64/2 65/65/2
f 74/74/2 73/73/2 72/72/2
f 71/71/2 72/72/2 69/69/2
f 71/71/2 74/74/2 72/72/2
f 70/70/2 73/73/2 74/74/2
f 78/78/2 77/77/2 80/80/2
f 79/79/2 80/80/2 75/75/2
f 79/79/2 78/78/2 80/80/2
f 76/76/2 77/77/2 78/78/2
