# This file uses centimeters as units for non-parametric coordinates.

mtllib podemium v1.mtl
g default
v -1.353785 2.585458 -1.271227
v -1.682070 2.721438 -1.271227
v -1.353785 3.049723 -1.271227
v -1.818050 3.049723 -1.271227
v -0.948328 0.008301 -0.474211
v -0.474211 0.008301 -0.948328
v 0.474211 0.008301 -0.948328
v 0.948328 0.008301 -0.474211
v 0.948328 0.008301 0.474211
v 0.474211 0.008301 0.948328
v -0.474211 0.008301 0.948328
v -0.948328 0.008301 0.474211
v -1.682070 3.378008 -1.271227
v -1.025499 2.721438 -1.271227
v -1.353785 3.513989 -1.271227
v -0.889519 3.049723 -1.271227
v -1.025499 3.378008 -1.271227
v -0.948328 2.907747 -0.474211
v -0.948328 2.907747 0.474211
v -0.474211 3.049058 -0.948328
v 0.474211 3.049058 -0.948328
v -0.889795 3.049058 -0.532744
v -1.322772 3.501143 -1.127926
v -1.127926 3.548371 -1.127926
v -1.127926 3.420435 -1.127926
v -1.353785 2.585458 1.271227
v -1.682070 2.721438 1.271227
v -1.818050 3.049723 1.271227
v -1.353785 3.049723 1.271227
v -1.682070 3.378008 1.271227
v -1.025499 2.721438 1.271227
v 1.346694 2.575987 -1.271227
v 1.018408 2.711967 -1.271227
v 1.346694 3.040252 -1.271227
v 0.882428 3.040252 -1.271227
v -0.889795 3.049058 -0.532744
v -0.474211 3.049058 -0.948328
v 1.018408 3.368538 -1.271227
v 1.674979 2.711967 -1.271227
v -1.353785 3.513989 1.271227
v -0.889519 3.049723 1.271227
v 1.346694 3.504518 -1.271227
v 1.810959 3.040252 -1.271227
v -1.025499 3.378008 1.271227
v -1.127926 3.420435 1.127926
v -1.127926 3.548371 1.127926
v -1.322772 3.501143 1.127926
v 1.674979 3.368538 -1.271227
v 1.127926 3.413901 -1.127926
v 1.127926 3.548371 -1.127926
v 1.324456 3.495307 -1.127926
v 0.474211 3.049058 -0.948328
v 0.948328 2.881157 0.474211
v 0.948328 2.881157 -0.474211
v -0.474211 3.049058 0.948328
v 0.474211 3.049058 0.948328
v -0.889795 3.049058 0.532744
v 1.018408 2.711967 1.271227
v 1.346694 2.575987 1.271227
v 1.346694 3.040252 1.271227
v 0.882428 3.040252 1.271227
v 0.886075 3.049058 -0.536463
v 0.886075 3.049058 -0.536463
v 0.896688 3.074678 1.127926
v -0.899856 3.074678 1.127926
v -0.899856 3.074678 -1.127926
v 0.896688 3.074678 -1.127926
v 1.018408 3.368538 1.271227
v 1.674979 2.711967 1.271227
v -0.474211 3.049058 0.948328
v -0.889795 3.049058 0.532744
v 1.324456 3.495307 1.127926
v 1.127926 3.548371 1.127926
v 1.127926 3.413901 1.127926
v 1.346694 3.504518 1.271227
v 1.810959 3.040252 1.271227
v 1.674979 3.368538 1.271227
v 0.474211 3.049058 0.948328
v 0.886075 3.049058 0.536463
v 0.886075 3.049058 0.536463
v 0.882428 3.040252 -0.540110
v 0.882428 3.040252 0.540111
v 1.018408 3.368538 -1.127926
v -1.025499 3.378008 -1.127926
v -1.025499 3.378008 1.127926
v 1.018408 3.368538 1.127926
v -0.948328 -0.189185 -0.474211
v -0.474211 -0.189185 -0.948328
v 0.474211 -0.189185 -0.948328
v 0.948328 -0.189185 -0.474211
v 0.948328 -0.189185 0.474211
v 0.474211 -0.189185 0.948328
v -0.474211 -0.189185 0.948328
v -0.948328 -0.189185 0.474211
v -1.346092 0.008301 -0.638971
v -0.638971 0.008301 -1.346092
v -0.638971 -0.189185 -1.346092
v -1.346092 -0.189185 -0.638971
v 0.638971 0.008301 -1.346092
v 0.638971 -0.189185 -1.346092
v 1.346092 0.008301 -0.638971
v 1.346092 -0.189185 -0.638971
v 1.346092 0.008301 0.638971
v 1.346092 -0.189185 0.638971
v 0.638971 0.008301 1.346092
v 0.638971 -0.189185 1.346092
v -0.638971 0.008301 1.346092
v -0.638971 -0.189185 1.346092
v -1.346092 0.008301 0.638971
v -1.346092 -0.189185 0.638971
vt 0.343750 0.156250
vt 0.389515 0.045765
vt 0.500000 0.150000
vt 0.500000 0.000000
vt 0.375000 0.812494
vt 0.437494 0.750000
vt 0.562506 0.750000
vt 0.625000 0.812494
vt 0.625000 0.937506
vt 0.562506 1.000000
vt 0.437494 1.000000
vt 0.375000 0.937506
vt 0.610485 0.045765
vt 0.389515 0.266735
vt 0.656250 0.156250
vt 0.500000 0.312500
vt 0.610485 0.266735
vt 0.187494 0.238382
vt 0.187494 0.000000
vt 0.312506 0.000000
vt 0.312506 0.238382
vt 0.437494 0.500000
vt 0.562506 0.500000
vt 0.382715 0.445222
vt 0.375000 0.454933
vt 0.125000 0.250000
vt 0.125000 0.250000
vt 0.125000 0.182480
vt 0.437500 0.312500
vt 0.468750 0.312500
vt 0.468750 0.688440
vt 0.437500 0.688440
vt 0.406250 0.312500
vt 0.406250 0.688440
vt 0.389515 0.954235
vt 0.343750 0.843750
vt 0.500000 0.837500
vt 0.500000 1.000000
vt 0.375000 0.312500
vt 0.375000 0.688440
vt 0.500000 0.312500
vt 0.500000 0.688440
vt 0.343750 0.156250
vt 0.389515 0.045765
vt 0.500000 0.150000
vt 0.500000 0.000000
vt 0.610485 0.954235
vt 0.389515 0.733265
vt 0.382715 0.445222
vt 0.437494 0.500000
vt 0.610485 0.045765
vt 0.389515 0.266735
vt 0.656250 0.843750
vt 0.500000 0.687500
vt 0.656250 0.156250
vt 0.500000 0.312500
vt 0.610485 0.733265
vt 0.375000 0.182480
vt 0.375000 0.250000
vt 0.375000 0.250000
vt 0.593750 0.312500
vt 0.625000 0.312500
vt 0.625000 0.688440
vt 0.593750 0.688440
vt 0.610485 0.266735
vt 0.875000 0.179031
vt 0.875000 0.250000
vt 0.875000 0.250000
vt 0.562506 0.500000
vt 0.562506 0.500000
vt 0.562506 0.500000
vt 0.687494 0.236196
vt 0.687494 0.000000
vt 0.812506 0.000000
vt 0.812506 0.236196
vt 0.437494 0.250000
vt 0.437494 0.000000
vt 0.562506 0.000000
vt 0.562506 0.250000
vt 0.327937 0.250000
vt 0.389515 0.954235
vt 0.343750 0.843750
vt 0.500000 0.837500
vt 0.500000 1.000000
vt 0.616794 0.445712
vt 0.616794 0.445712
vt 0.599374 1.000000
vt 0.400275 1.000000
vt 0.400275 0.750000
vt 0.599374 0.750000
vt 0.610485 0.954235
vt 0.389515 0.733265
vt 0.382715 0.304778
vt 0.437494 0.250000
vt 0.382715 0.304778
vt 0.625000 0.250000
vt 0.625000 0.250000
vt 0.625000 0.179031
vt 0.656250 0.843750
vt 0.500000 0.687500
vt 0.610485 0.733265
vt 0.625000 0.500000
vt 0.375000 0.500000
vt 0.437500 0.312500
vt 0.468750 0.312500
vt 0.468750 0.688440
vt 0.437500 0.688440
vt 0.437494 0.250000
vt 0.437494 0.250000
vt 0.500000 0.312500
vt 0.500000 0.688440
vt 0.616794 0.304288
vt 0.562506 0.250000
vt 0.616794 0.304288
vt 0.531250 0.312500
vt 0.531250 0.688440
vt 0.616314 0.447117
vt 0.625000 0.458212
vt 0.562500 0.312500
vt 0.562500 0.688440
vt 0.593750 0.312500
vt 0.593750 0.688440
vt 0.531250 0.312500
vt 0.531187 0.421696
vt 0.531187 0.421696
vt 0.517735 0.430351
vt 0.517735 0.570589
vt 0.531187 0.579244
vt 0.531187 0.579244
vt 0.531250 0.688440
vt 0.670121 0.249276
vt 0.671083 0.250000
vt 0.625000 0.570969
vt 0.612863 0.594910
vt 0.386351 0.589912
vt 0.375000 0.567520
vt 0.562500 0.312500
vt 0.562500 0.333689
vt 0.533625 0.333689
vt 0.533625 0.667251
vt 0.562500 0.667251
vt 0.562500 0.688440
vt 0.572250 0.667251
vt 0.590798 0.667251
vt 0.590798 0.333689
vt 0.572250 0.333689
vt 0.406250 0.312500
vt 0.406250 0.688440
vt 0.406250 0.580333
vt 0.421394 0.570589
vt 0.421395 0.430351
vt 0.406250 0.420607
vt 0.400275 0.000000
vt 0.599374 0.000000
vt 0.612863 0.155090
vt 0.386351 0.160088
vt 0.625000 0.312500
vt 0.625000 0.333689
vt 0.614575 0.333689
vt 0.595867 0.333689
vt 0.595867 0.667251
vt 0.614575 0.667251
vt 0.625000 0.667251
vt 0.625000 0.688440
vt 0.375000 0.312500
vt 0.405412 0.421146
vt 0.405412 0.421146
vt 0.405412 0.579794
vt 0.405412 0.579794
vt 0.375000 0.688440
vt 0.375000 0.667251
vt 0.402973 0.667251
vt 0.402973 0.333689
vt 0.375000 0.333689
vt 0.375000 0.812494
vt 0.437494 0.750000
vt 0.562506 0.750000
vt 0.625000 0.812494
vt 0.625000 0.937506
vt 0.562506 1.000000
vt 0.437494 1.000000
vt 0.375000 0.937506
vt 0.375000 0.812494
vt 0.437494 0.750000
vt 0.437494 0.750000
vt 0.375000 0.812494
vt 0.562506 0.750000
vt 0.562506 0.750000
vt 0.625000 0.812494
vt 0.625000 0.812494
vt 0.625000 0.937506
vt 0.625000 0.937506
vt 0.562506 1.000000
vt 0.562506 1.000000
vt 0.437494 1.000000
vt 0.437494 1.000000
vt 0.375000 0.937506
vt 0.375000 0.937506
vn -0.000000 0.000000 -1.000000
vn -0.000000 0.000000 -1.000000
vn 0.000000 0.000000 -1.000000
vn 0.000000 0.000000 -1.000000
vn 0.000000 -1.000000 -0.000000
vn 0.000000 -1.000000 -0.000000
vn 0.000000 -1.000000 -0.000000
vn 0.000000 -1.000000 -0.000000
vn 0.000000 -1.000000 -0.000000
vn 0.000000 -1.000000 -0.000000
vn 0.000000 -1.000000 -0.000000
vn 0.000000 -1.000000 -0.000000
vn -0.000000 0.000000 -1.000000
vn 0.000000 0.000000 -1.000000
vn 0.000000 0.000000 -1.000000
vn 0.000000 0.000000 -1.000000
vn 0.000000 0.000000 -1.000000
vn -1.000000 0.000000 0.000000
vn -1.000000 0.000000 0.000000
vn -1.000000 0.000000 0.000000
vn -1.000000 0.000000 0.000000
vn 0.000000 0.000000 -1.000000
vn 0.000000 0.000000 -1.000000
vn 0.000000 0.000000 -1.000000
vn 0.000000 0.000000 -1.000000
vn -0.707107 0.000000 -0.707107
vn -0.707107 0.000000 -0.707107
vn -0.707107 0.000000 -0.707107
vn -0.707107 0.000000 -0.707107
vn -0.707107 0.000000 -0.707107
vn -0.000001 0.000000 -1.000000
vn 0.000000 0.000000 -1.000000
vn 0.000000 0.000000 -1.000000
vn -0.382684 -0.923880 0.000000
vn -0.382684 -0.923880 0.000000
vn -0.382684 -0.923880 0.000000
vn -0.382684 -0.923880 0.000000
vn -0.923880 -0.382683 0.000000
vn -0.923880 -0.382683 0.000000
vn -0.923880 -0.382683 0.000000
vn -0.923880 -0.382683 0.000000
vn -0.000000 0.000000 1.000000
vn 0.000000 0.000000 1.000000
vn -0.000000 0.000000 1.000000
vn 0.000000 0.000000 1.000000
vn -0.923880 0.382683 0.000000
vn -0.923880 0.382683 0.000000
vn -0.923880 0.382683 0.000000
vn -0.923880 0.382683 0.000000
vn 0.382684 -0.923879 0.000000
vn 0.382684 -0.923879 0.000000
vn 0.382684 -0.923879 0.000000
vn 0.382684 -0.923879 0.000000
vn -0.000000 0.000000 -1.000000
vn -0.000000 0.000000 -1.000000
vn -0.000000 0.000000 -1.000000
vn 0.000000 0.000000 -1.000000
vn -0.000000 0.000000 1.000000
vn 0.000000 0.000000 1.000000
vn 0.000000 0.000000 0.000000
vn 0.000000 0.000000 0.000000
vn 0.000000 0.000000 0.000000
vn 0.000000 0.000000 0.000000
vn -0.000000 0.000000 -1.000000
vn 0.000000 0.000000 -1.000000
vn -0.000000 0.000000 1.000000
vn 0.000000 0.000000 1.000000
vn -0.000000 0.000000 -1.000000
vn 0.000000 0.000000 -1.000000
vn 0.000000 0.000000 1.000000
vn 0.000000 0.000000 1.000000
vn 0.000000 0.000000 1.000000
vn -0.000001 0.000000 1.000000
vn -0.382684 0.923880 0.000000
vn -0.382684 0.923880 0.000000
vn -0.382684 0.923880 0.000000
vn -0.382684 0.923880 0.000000
vn 0.000000 0.000000 -1.000000
vn 0.000000 0.000000 -1.000000
vn 0.000000 0.000000 -1.000000
vn 0.000001 0.000000 -1.000000
vn 0.000000 0.000000 0.000000
vn 0.000000 0.000000 0.000000
vn 0.000000 0.000000 0.000000
vn 0.000000 0.000000 0.000000
vn -0.235564 0.971859 0.000000
vn -0.019268 0.999814 0.000000
vn -0.019268 0.999814 0.000000
vn -0.235564 0.971859 0.000000
vn 1.000000 0.000000 0.000000
vn 1.000000 0.000000 0.000000
vn 1.000000 0.000000 0.000000
vn 1.000000 0.000000 0.000000
vn 0.000000 0.000000 1.000000
vn 0.000000 0.000000 1.000000
vn 0.000000 0.000000 1.000000
vn 0.000000 0.000000 1.000000
vn -0.707107 0.000000 0.707107
vn -0.707107 0.000000 0.707107
vn -0.707107 0.000000 0.707107
vn -0.707107 0.000000 0.707107
vn -0.707107 0.000000 0.707107
vn -0.000000 0.000000 1.000000
vn 0.000000 0.000000 1.000000
vn -0.000000 0.000000 1.000000
vn 0.000000 0.000000 1.000000
vn 0.000000 0.000000 0.000000
vn 0.000000 0.000000 0.000000
vn 0.000000 0.000000 0.000000
vn 0.000000 0.000000 0.000000
vn 0.000000 -1.000000 0.000000
vn 0.000000 -1.000000 0.000000
vn 0.000000 -1.000000 0.000000
vn 0.000000 -1.000000 0.000000
vn -0.000000 0.000000 1.000000
vn 0.000000 0.000000 1.000000
vn 0.000000 0.000000 0.000000
vn 0.000000 0.000000 0.000000
vn 0.000000 0.000000 0.000000
vn 0.000000 0.000000 0.000000
vn 0.000001 0.000000 1.000000
vn 0.000000 0.000000 1.000000
vn 0.000000 0.000000 1.000000
vn -0.000000 0.000000 1.000000
vn 0.000000 0.000000 1.000000
vn 0.000000 0.000000 1.000000
vn 0.021633 0.999766 0.000000
vn 0.021633 0.999766 0.000000
vn -0.382684 -0.923880 0.000000
vn -0.382684 -0.923880 0.000000
vn -0.382684 -0.923880 0.000000
vn -0.382684 -0.923880 0.000000
vn 0.000000 0.000000 0.000000
vn 0.000000 0.000000 0.000000
vn 0.000000 0.000000 0.000000
vn 0.000000 0.000000 0.000000
vn 0.382684 -0.923879 0.000000
vn 0.382684 -0.923879 0.000000
vn 0.382684 -0.923879 0.000000
vn 0.382684 -0.923879 0.000000
vn 0.000000 0.000000 0.000000
vn 0.000000 0.000000 0.000000
vn 0.000000 0.000000 0.000000
vn 0.000000 0.000000 0.000000
vn 0.923880 -0.382684 0.000000
vn 0.923880 -0.382684 0.000000
vn 0.923880 -0.382684 0.000000
vn 0.923880 -0.382684 0.000000
vn 0.260669 0.965428 0.000000
vn 0.260669 0.965428 0.000000
vn 0.707107 0.000000 -0.707107
vn 0.707107 0.000000 -0.707107
vn 0.707107 0.000000 -0.707107
vn 0.707107 0.000000 -0.707107
vn 0.707107 0.000000 -0.707107
vn 0.707107 0.000000 -0.707107
vn 0.923880 0.382683 0.000000
vn 0.923880 0.382683 0.000000
vn 0.923880 0.382683 0.000000
vn 0.923880 0.382683 0.000000
vn 0.382683 0.923880 0.000000
vn 0.382683 0.923880 0.000000
vn 0.382683 0.923880 0.000000
vn 0.382683 0.923880 0.000000
vn 0.923879 -0.382684 -0.000000
vn 0.923879 -0.382684 -0.000000
vn 0.923880 -0.382683 0.000000
vn 0.000000 -0.000000 -0.000000
vn 0.923879 -0.382684 -0.000000
vn 0.923879 -0.382684 -0.000000
vn 0.923880 -0.382683 0.000000
vn 0.000000 -0.000000 0.000000
vn 0.000000 -0.000000 0.000000
vn 0.923880 -0.382683 0.000000
vn 0.707107 0.000000 0.707107
vn 0.707107 0.000000 0.707107
vn 0.707107 0.000000 0.707107
vn 0.707107 0.000000 0.707107
vn 0.707107 0.000000 0.707107
vn 0.707107 0.000000 0.707107
vn 0.000000 0.000000 -1.000000
vn 0.000000 0.000000 -1.000000
vn 0.000000 0.000000 -1.000000
vn 0.000000 0.000000 -1.000000
vn 0.923880 0.382682 0.000000
vn 0.923880 0.382682 0.000000
vn 0.923880 0.382682 0.000000
vn 0.923880 0.382682 0.000000
vn 0.923880 0.382682 0.000000
vn 0.923880 0.382682 0.000000
vn 0.923880 0.382682 0.000000
vn 0.923880 0.382682 0.000000
vn 0.000000 1.000000 0.000000
vn 0.000000 1.000000 0.000000
vn 0.000000 1.000000 0.000000
vn 0.000000 1.000000 0.000000
vn 0.000000 1.000000 0.000000
vn 0.000000 1.000000 0.000000
vn 0.000000 1.000000 0.000000
vn 0.000000 1.000000 0.000000
vn 0.382684 0.923879 0.000000
vn 0.382684 0.923879 0.000000
vn 0.382684 0.923879 0.000000
vn 0.382684 0.923879 0.000000
vn 0.382684 0.923879 0.000000
vn 0.382684 0.923879 0.000000
vn 0.382684 0.923879 0.000000
vn 0.382684 0.923879 0.000000
vn 0.382684 0.923879 0.000000
vn 0.382684 0.923879 0.000000
vn -0.923880 -0.382684 0.000000
vn -0.923880 -0.382684 0.000000
vn -0.923880 -0.382684 0.000000
vn -0.923880 -0.382684 0.000000
vn -0.923880 -0.382684 0.000000
vn -0.923880 -0.382684 0.000000
vn -0.923880 -0.382684 0.000000
vn -0.923880 -0.382684 0.000000
vn 0.000000 0.000000 1.000000
vn 0.000000 0.000000 1.000000
vn 0.000000 0.000000 1.000000
vn 0.000000 0.000000 1.000000
vn -0.382684 0.923880 0.000000
vn -0.382684 0.923880 0.000000
vn -0.382684 0.923880 0.000000
vn -0.382684 0.923880 0.000000
vn -0.382684 0.923880 0.000000
vn -0.382684 0.923880 0.000000
vn -0.382684 0.923880 0.000000
vn -0.382684 0.923880 0.000000
vn -0.382684 0.923880 0.000000
vn -0.382684 0.923880 0.000000
vn -0.923880 0.382683 0.000000
vn -0.923880 0.382683 0.000000
vn -0.923880 0.382683 0.000000
vn -0.000000 0.000000 0.000000
vn -0.000000 0.000000 0.000000
vn -0.000000 0.000000 0.000000
vn -0.000000 0.000000 0.000000
vn -0.923880 0.382683 0.000000
vn -0.923880 0.382683 0.000000
vn -0.923880 0.382683 0.000000
vn -0.923880 0.382683 0.000000
vn -0.923880 0.382683 0.000000
vn -0.923880 0.382683 0.000000
vn -0.923880 0.382683 0.000000
vn -0.707107 0.000000 -0.707107
vn -0.707107 0.000000 -0.707107
vn -0.707107 0.000000 -0.707107
vn -0.707107 0.000000 -0.707107
vn 0.000000 0.000000 -1.000000
vn 0.000000 0.000000 -1.000000
vn 0.000000 0.000000 -1.000000
vn 0.000000 0.000000 -1.000000
vn 0.707107 0.000000 -0.707107
vn 0.707107 0.000000 -0.707107
vn 0.707107 0.000000 -0.707107
vn 0.707107 0.000000 -0.707107
vn 1.000000 0.000000 0.000000
vn 1.000000 0.000000 0.000000
vn 1.000000 0.000000 0.000000
vn 1.000000 0.000000 0.000000
vn 0.707107 0.000000 0.707107
vn 0.707107 0.000000 0.707107
vn 0.707107 0.000000 0.707107
vn 0.707107 0.000000 0.707107
vn 0.000000 0.000000 1.000000
vn 0.000000 0.000000 1.000000
vn 0.000000 0.000000 1.000000
vn 0.000000 0.000000 1.000000
vn -0.707107 0.000000 0.707107
vn -0.707107 0.000000 0.707107
vn -0.707107 0.000000 0.707107
vn -0.707107 0.000000 0.707107
vn -1.000000 0.000000 0.000000
vn -1.000000 0.000000 0.000000
vn -1.000000 0.000000 0.000000
vn -1.000000 0.000000 0.000000
vn 0.000000 1.000000 0.000000
vn 0.000000 1.000000 0.000000
vn 0.000000 1.000000 0.000000
vn 0.000000 1.000000 0.000000
vn 0.000000 -1.000000 0.000000
vn 0.000000 -1.000000 0.000000
vn 0.000000 1.000000 0.000000
vn 0.000000 1.000000 0.000000
vn 0.000000 -1.000000 -0.000000
vn 0.000000 1.000000 0.000000
vn 0.000000 1.000000 0.000000
vn 0.000000 -1.000000 0.000000
vn 0.000000 1.000000 0.000000
vn 0.000000 1.000000 0.000000
vn 0.000000 -1.000000 -0.000000
vn 0.000000 1.000000 -0.000000
vn 0.000000 1.000000 -0.000000
vn 0.000000 -1.000000 -0.000000
vn 0.000000 1.000000 -0.000000
vn 0.000000 1.000000 -0.000000
vn 0.000000 -1.000000 0.000000
vn 0.000000 1.000000 -0.000000
vn 0.000000 1.000000 -0.000000
vn 0.000000 -1.000000 0.000000
s 1
g pCylinder3
usemtl initialShadingGroup
f 1/1/1 2/2/2 3/3/3
f 2/2/2 4/4/4 3/3/3
s 2
f 87/175/5 88/176/6 89/177/7 90/178/8 91/179/9 92/180/10 93/181/11 94/182/12
s 1
f 4/4/4 13/13/13 3/3/3
f 14/14/14 1/1/1 3/3/3
f 13/13/13 15/15/15 3/3/3
f 16/16/16 14/14/14 3/3/3
f 17/17/17 16/16/16 3/3/3
f 15/15/15 17/17/17 3/3/3
s off
f 18/18/18 5/19/19 12/20/20 19/21/21
f 6/6/22 20/22/23 21/23/24 7/7/25
f 22/24/26 20/22/27 6/6/28 5/5/29 18/25/30
s 3
f 23/26/31 24/27/32 25/28/33
s off
f 2/29/34 1/30/35 26/31/36 27/32/37
f 4/33/38 2/29/39 27/32/40 28/34/41
s 4
f 27/35/42 26/36/43 29/37/44
f 28/38/45 27/35/42 29/37/44
s off
f 13/39/46 4/33/47 28/34/48 30/40/49
f 1/30/50 14/41/51 31/42/52 26/31/53
s 5
f 32/43/54 33/44/55 34/45/56
f 33/44/55 35/46/57 34/45/56
s 4
f 30/47/58 28/38/45 29/37/44
f 26/36/43 31/48/59 29/37/44
s off
f 36/49/60 37/50/61 20/22/62 22/24/63
s 5
f 35/46/57 38/51/64 34/45/56
f 39/52/65 32/43/54 34/45/56
s 4
f 40/53/66 30/47/58 29/37/44
f 31/48/59 41/54/67 29/37/44
s 5
f 38/51/64 42/55/68 34/45/56
f 43/56/69 39/52/65 34/45/56
s 4
f 41/54/67 44/57/70 29/37/44
f 44/57/70 40/53/66 29/37/44
s 6
f 45/58/71 46/59/72 47/60/73
s off
f 15/61/74 13/62/75 30/63/76 40/64/77
s 5
f 42/55/68 48/65/78 34/45/56
f 48/65/78 43/56/69 34/45/56
s 3
f 49/66/79 50/67/80 51/68/81
s off
f 21/23/82 20/69/83 37/70/84 52/71/85
s 7
f 47/60/86 46/59/87 24/27/88 23/26/89
s off
f 53/72/90 9/73/91 8/74/92 54/75/93
f 55/76/94 11/77/95 10/78/96 56/79/97
f 19/21/98 12/20/99 11/77/100 55/76/101 57/80/102
s 8
f 58/81/103 59/82/104 60/83/105
f 61/84/106 58/81/103 60/83/105
s off
f 62/85/107 21/23/108 52/71/109 63/86/110
f 64/87/111 65/88/112 66/89/113 67/90/114
s 8
f 68/91/115 61/84/106 60/83/105
f 59/82/104 69/92/116 60/83/105
s off
f 57/93/117 55/76/118 70/94/119 71/95/120
s 6
f 72/96/121 73/97/122 74/98/123
s 8
f 75/99/124 68/91/115 60/83/105
f 69/92/116 76/100/125 60/83/105
f 77/101/126 75/99/124 60/83/105
f 76/100/125 77/101/126 60/83/105
s 7
f 46/59/87 73/97/127 50/102/128 24/103/88
s off
f 33/104/129 32/105/130 59/106/131 58/107/132
f 55/76/133 56/108/134 78/109/135 70/94/136
f 32/105/137 39/110/138 69/111/139 59/106/140
f 79/112/141 78/113/142 56/79/143 80/114/144
f 39/110/145 43/115/146 76/116/147 69/111/148
s 7
f 51/68/149 50/67/128 73/97/127 72/96/150
s off
f 21/23/151 62/85/152 81/117/153 54/118/154 8/8/155 7/7/156
f 43/115/157 48/119/158 77/120/159 76/116/160
f 48/119/161 42/121/162 75/122/163 77/120/164
s 9
f 14/41/165 16/123/166 36/124/167 22/125/168 18/126/169 19/127/170 31/42/171
f 19/127/170 57/128/172 71/129/173 36/124/167 16/123/166 41/130/174 31/42/171
s off
f 10/78/175 9/73/176 53/72/177 82/131/178 80/132/179 56/79/180
s 3
f 24/103/32 50/102/80 49/133/79 83/134/181 67/90/182 66/89/183 84/135/184 25/136/33
s off
f 16/123/185 17/137/186 84/138/187 66/139/188 65/140/189 85/141/190 44/142/191 41/130/192
f 63/86/193 52/71/194 37/50/195 36/49/196 71/95/197 70/94/198 78/113/199 79/112/200
f 17/137/201 15/61/202 40/64/203 44/142/204 85/141/205 45/143/206 47/144/207 23/145/208 25/146/209 84/138/210
f 35/147/211 33/104/212 58/107/213 61/148/214 82/149/215 53/150/216 54/151/217 81/152/218
s 6
f 65/153/219 64/154/220 86/155/221 74/98/123 73/97/122 46/59/72 45/58/71 85/156/222
s off
f 42/121/223 38/157/224 83/158/225 49/159/226 51/160/227 72/161/228 74/162/229 86/163/230 68/164/231 75/122/232
f 38/165/233 35/147/234 81/152/235 62/166/236 63/167/237 79/168/238 80/169/239 82/149/240 61/148/241 68/170/242 86/171/243 64/172/244 67/173/245 83/174/246
f 95/183/247 96/184/248 97/185/249 98/186/250
f 96/184/251 99/187/252 100/188/253 97/185/254
f 99/187/255 101/189/256 102/190/257 100/188/258
f 101/189/259 103/191/260 104/192/261 102/190/262
f 103/191/263 105/193/264 106/194/265 104/192/266
f 105/193/267 107/195/268 108/196/269 106/194/270
f 107/195/271 109/197/272 110/198/273 108/196/274
f 109/197/275 95/183/276 98/186/277 110/198/278
s 10
f 5/5/279 6/6/280 96/184/281 95/183/282
s 2
f 88/176/6 87/175/5 98/186/283 97/185/284
s 10
f 6/6/280 7/7/285 99/187/286 96/184/281
s 2
f 89/177/7 88/176/6 97/185/284 100/188/287
s 10
f 7/7/285 8/8/288 101/189/289 99/187/286
s 2
f 90/178/8 89/177/7 100/188/287 102/190/290
s 10
f 8/8/288 9/9/291 103/191/292 101/189/289
s 2
f 91/179/9 90/178/8 102/190/290 104/192/293
s 10
f 9/9/291 10/10/294 105/193/295 103/191/292
s 2
f 92/180/10 91/179/9 104/192/293 106/194/296
s 10
f 10/10/294 11/11/297 107/195/298 105/193/295
s 2
f 93/181/11 92/180/10 106/194/296 108/196/299
s 10
f 11/11/297 12/12/300 109/197/301 107/195/298
s 2
f 94/182/12 93/181/11 108/196/299 110/198/302
s 10
f 12/12/300 5/5/279 95/183/282 109/197/301
s 2
f 87/175/5 94/182/12 110/198/302 98/186/283
