# ProBuilder 5.0.3
# https://unity3d.com/unity/features/worldbuilding/probuilder
# 9/19/2022 4:13:53 PM

mtllib ./Car.mtl
o Car

g Cube
v 0.1946483 0.1629741 -37.40055
v 0.1946483 0 -37.42069
v 0.1946483 0 -38.75202
v 0.1946483 0.3929839 -37.67933
v 0.1946483 0.397795 -38.75202
v -0.8053517 0 -38.75202
v -0.8053517 0 -37.42069
v -0.8053517 0.1629741 -37.40055
v -0.8053517 0.3929839 -37.67933
v -0.8053517 0.397795 -38.75202

vt 1 0.8
vt 1 0
vt 0 0
vt 0.8 1
vt 0 1
vt 0 0.8
vt 0.2 1
vt 1 1
vt 0 0.2
vt 1 0.2
vt -0.5 0.4762673
vt 0.5000001 0.4762673
vt 0.5000001 0.1148467
vt -0.5 0.1148467

vn 1 0 0
vn -1 0 0
vn 0 -0.1226431 0.9924509
vn 0 0.9999899 0.004485046
vn 0 0 -1
vn 0 -1 0
vn 0 0.7713512 0.6364098

usemtl Car_Body
f 1/1/1 2/2/1 3/3/1
f 6/2/2 7/3/2 8/6/2
f 4/4/1 1/1/1 3/3/1
f 3/3/1 5/5/1 4/4/1
f 6/2/2 8/6/2 9/7/2
f 9/7/2 10/8/2 6/2/2
f 2/3/3 1/6/3 8/1/3
f 8/1/3 7/2/3 2/3/3
f 4/9/4 5/5/4 10/8/4
f 10/8/4 9/10/4 4/9/4
f 5/3/5 3/5/5 6/8/5
f 6/8/5 10/2/5 5/3/5
f 3/3/6 2/5/6 7/8/6
f 7/8/6 6/2/6 3/3/6

usemtl Car_Windshield
f 8/11/7 1/12/7 4/13/7 9/14/7

